<?xml version="1.0" standalone="no"?>
<!DOCTYPE svg PUBLIC "-//W3C//DTD SVG 20010904//EN"
 "http://www.w3.org/TR/2001/REC-SVG-20010904/DTD/svg10.dtd">
<svg version="1.0" xmlns="http://www.w3.org/2000/svg"
 width="500.000000pt" height="500.000000pt" viewBox="0 0 500.000000 500.000000"
 preserveAspectRatio="xMidYMid meet">

<g transform="translate(0.000000,500.000000) scale(0.100000,-0.100000)"
fill="#000000" stroke="none">
<path d="M2185 4935 c-569 -77 -1050 -317 -1452 -726 -316 -323 -524 -700
-635 -1154 -61 -253 -78 -639 -38 -911 89 -612 367 -1115 855 -1544 243 -214
624 -409 963 -494 227 -57 337 -69 627 -69 247 0 283 2 415 26 452 81 874 281
1189 565 41 37 85 75 97 84 30 24 210 230 265 303 204 272 348 578 424 900 49
207 67 397 62 630 -3 124 -12 253 -21 315 -101 627 -415 1168 -907 1561 -339
271 -764 451 -1197 508 -168 22 -501 25 -647 6z m672 -175 c124 -20 300 -64
402 -101 31 -11 70 -24 86 -29 50 -16 296 -143 379 -196 191 -121 385 -291
536 -469 215 -254 386 -588 469 -920 53 -212 56 -241 56 -550 0 -265 -2 -301
-24 -415 -59 -308 -176 -599 -341 -848 -365 -552 -932 -917 -1585 -1019 -154
-24 -516 -24 -675 0 -713 108 -1335 547 -1685 1187 -30 55 -55 104 -55 108 0
4 -7 21 -16 37 -26 51 -82 199 -104 276 -71 254 -87 354 -96 579 -27 654 214
1264 680 1725 381 376 867 602 1411 655 131 13 425 3 562 -20z"/>
<path d="M1515 3560 c-33 -11 -81 -23 -107 -26 -26 -4 -52 -12 -56 -18 -5 -6
-37 -136 -71 -290 -34 -153 -64 -283 -67 -287 -10 -17 -30 -9 -61 24 -28 30
-182 229 -277 358 -22 31 -48 61 -58 67 -12 8 -44 4 -130 -18 -62 -16 -116
-30 -120 -30 -14 0 -9 -27 47 -232 52 -193 95 -390 130 -598 21 -118 33 -160
48 -160 7 0 34 7 61 15 28 8 77 20 110 25 33 5 64 14 69 19 9 9 -2 61 -62 295
-34 130 -38 168 -18 160 12 -5 23 -18 151 -194 154 -211 164 -223 199 -216 17
3 32 8 35 10 2 3 12 58 22 123 10 65 26 159 35 208 9 50 20 114 25 144 5 29
12 56 15 59 17 17 41 -63 70 -237 18 -105 43 -222 49 -229 3 -2 51 6 108 18
74 16 116 20 148 15 76 -13 132 -9 195 15 92 34 99 33 103 -17 3 -42 4 -43 53
-57 27 -8 77 -18 111 -22 53 -6 63 -4 75 12 13 17 15 16 43 -15 28 -30 33 -32
77 -25 45 6 128 42 199 85 28 17 64 71 64 95 0 4 -16 -10 -36 -32 -29 -32 -35
-35 -31 -16 4 14 0 22 -9 22 -8 0 -14 -6 -14 -12 0 -14 -93 -19 -106 -5 -4 4
1 7 12 7 15 1 14 4 -8 16 -16 8 -28 20 -29 27 0 7 -4 2 -9 -10 -5 -13 -14 -23
-19 -23 -15 0 -23 18 -11 25 6 4 8 10 5 15 -7 12 -100 -24 -100 -38 0 -6 -4
-14 -8 -18 -4 -4 -5 17 -1 48 4 37 3 58 -5 62 -17 11 -13 37 7 52 16 13 16 14
0 8 -13 -4 -18 -1 -18 12 -1 17 -2 18 -13 2 -21 -26 -98 -27 -127 0 -18 16
-27 19 -37 11 -10 -9 -13 -7 -13 7 0 12 -9 2 -22 -23 -12 -23 -25 -40 -29 -37
-4 2 -10 0 -14 -6 -3 -5 -32 -10 -64 -10 -43 0 -62 5 -78 20 -12 11 -23 16
-26 12 -2 -4 -2 -1 -1 5 2 7 1 20 -3 28 -5 14 -8 14 -25 -2 -17 -15 -21 -15
-28 -3 -6 8 -10 23 -10 32 0 9 -4 19 -9 22 -5 3 -15 30 -22 58 -6 29 -18 67
-25 85 -8 17 -22 70 -33 118 -10 48 -22 89 -25 93 -4 3 -12 -9 -18 -26 -7 -18
-17 -31 -22 -29 -11 4 -34 100 -72 300 -31 165 -24 157 -119 127z"/>
<path d="M3105 3372 c-108 -35 -115 -166 -11 -216 40 -19 126 -21 148 -3 74
60 60 165 -27 207 -42 20 -73 23 -110 12z"/>
<path d="M2961 3048 c-6 -29 -13 -74 -17 -101 -3 -26 -10 -50 -15 -53 -5 -3
-9 -101 -9 -219 0 -233 2 -225 -61 -225 -16 0 -29 -4 -29 -8 0 -12 149 -52
192 -52 l34 0 23 93 c13 50 27 109 33 130 17 69 27 38 30 -90 l3 -128 118 -3
117 -3 -1 193 c0 106 -3 200 -7 208 -8 17 -33 20 -44 5 -4 -6 -13 -2 -21 9
-14 19 -16 19 -39 4 l-25 -16 14 61 c8 34 21 83 29 110 9 26 14 52 12 59 -6
17 -86 38 -145 38 -29 0 -75 9 -103 20 -73 29 -77 27 -89 -32z"/>
<path d="M2426 2868 c-5 -25 -1 -37 16 -55 l23 -25 7 34 c4 18 2 37 -3 43 -6
5 -9 3 -9 -7 0 -9 -5 -20 -12 -24 -8 -5 -9 2 -5 24 4 17 3 34 -2 36 -5 3 -11
-9 -15 -26z"/>
<path d="M3621 2798 c-24 -25 -33 -117 -29 -283 l3 -120 110 -3 c61 -1 115 1
122 6 9 6 11 55 6 200 -3 106 -9 188 -13 181 -5 -8 -15 -4 -31 12 -14 14 -24
18 -27 11 -5 -15 -59 -16 -64 -1 -7 21 -57 19 -77 -3z"/>
<path d="M3800 2799 c0 -5 5 -7 10 -4 6 3 10 8 10 11 0 2 -4 4 -10 4 -5 0 -10
-5 -10 -11z"/>
<path d="M4121 2792 c-19 -2 -41 -11 -48 -20 -12 -15 -12 -15 -7 3 5 14 4 17
-3 10 -6 -6 -13 -89 -16 -192 -7 -218 -16 -205 135 -201 l103 3 -1 160 c0 121
-5 171 -17 205 -9 25 -16 39 -17 32 0 -10 -9 -12 -32 -7 -56 11 -62 12 -97 7z"/>
<path d="M2490 2680 c-9 -6 -10 -10 -3 -10 6 0 15 5 18 10 8 12 4 12 -15 0z"/>
<path d="M3142 2299 c-5 -13 -14 -80 -21 -149 -22 -239 -21 -237 -81 -175 -99
103 -311 82 -418 -41 -72 -82 -82 -100 -82 -144 0 -23 -4 -39 -9 -36 -5 4 -12
0 -14 -6 -3 -7 -6 3 -6 22 -1 19 -5 30 -9 24 -14 -21 -47 -31 -99 -29 -29 0
-55 4 -59 8 -17 16 -26 5 -22 -28 2 -19 0 -35 -4 -35 -4 0 -8 -13 -8 -29 0
-43 -16 -47 -48 -11 -19 20 -34 29 -45 24 -9 -3 -14 -10 -11 -15 8 -14 -6 -10
-22 6 -14 13 -13 15 10 15 29 0 33 11 11 30 -13 11 -18 11 -28 0 -9 -9 -9 -11
0 -6 6 3 14 3 17 -2 6 -10 6 -10 -79 -17 -33 -2 -65 -5 -72 -6 -13 -2 -13 -25
0 -46 5 -8 4 -13 -2 -13 -6 0 -11 4 -11 10 0 5 -11 12 -25 16 -14 3 -23 10
-20 14 7 11 -5 40 -15 40 -5 0 -6 -8 -4 -17 6 -22 -21 -62 -33 -49 -4 5 -2 11
5 13 16 6 5 23 -15 23 -10 0 -13 -6 -9 -16 5 -14 4 -15 -9 -4 -8 7 -13 16 -10
20 3 5 1 11 -5 15 -5 3 -10 1 -10 -6 0 -9 99 -129 130 -159 3 -3 35 -40 70
-84 l65 -78 80 7 c44 4 132 10 195 13 l115 7 3 33 c4 43 23 41 56 -7 78 -113
256 -158 381 -96 57 27 80 26 72 -6 -10 -36 14 -49 108 -59 122 -13 123 -13
130 11 6 19 9 18 39 -15 46 -52 87 -50 191 9 104 60 132 88 151 153 13 45 14
61 3 105 -10 44 -24 64 -85 128 -76 78 -88 105 -64 150 15 26 62 49 105 49 19
0 35 5 35 11 0 13 -73 121 -94 138 -23 19 -96 7 -153 -24 -25 -15 -49 -23 -53
-18 -6 7 13 138 46 311 l7 32 -116 0 c-63 0 -122 3 -131 6 -11 4 -19 -2 -24
-17z m-169 -483 c18 -7 45 -28 60 -45 72 -86 27 -224 -84 -252 -40 -11 -51
-10 -85 7 -84 41 -110 143 -59 230 41 69 98 90 168 60z m-868 -126 c3 -5 -1
-10 -9 -10 -9 0 -16 5 -16 10 0 6 4 10 9 10 6 0 13 -4 16 -10z m140 -10 c3 -5
1 -10 -4 -10 -6 0 -11 5 -11 10 0 6 2 10 4 10 3 0 8 -4 11 -10z m-255 -35 c0
-8 5 -15 11 -15 5 0 7 -5 4 -10 -5 -8 -11 -7 -21 1 -16 13 -19 39 -4 39 6 0
10 -7 10 -15z m1369 -61 c52 -46 69 -95 46 -130 -17 -26 -70 -54 -101 -54 -15
0 -16 11 -12 98 4 89 11 122 24 122 2 0 22 -16 43 -36z"/>
<path d="M1306 1957 c-8 -45 -57 -112 -98 -134 -34 -18 -192 -27 -182 -11 3 4
-4 8 -16 8 -12 0 -18 -4 -15 -10 3 -5 0 -8 -7 -5 -17 6 -52 -21 -43 -34 4 -7
-1 -8 -12 -4 -34 13 45 -47 88 -67 53 -23 114 -25 162 -5 57 24 81 19 133 -28
67 -58 105 -87 117 -87 36 0 -53 344 -101 392 -19 20 -19 20 -26 -15z"/>
<path d="M1135 1930 c-3 -6 1 -7 9 -4 18 7 21 14 7 14 -6 0 -13 -4 -16 -10z"/>
<path d="M2134 1778 c11 -15 12 -27 5 -42 -9 -18 -8 -19 3 -5 12 15 19 19 35
19 4 0 -4 11 -19 25 -33 31 -44 32 -24 3z"/>
<path d="M2071 1766 c-8 -10 -9 -16 -1 -21 5 -3 13 1 16 10 9 22 -1 29 -15 11z"/>
<path d="M2105 1760 c3 -5 8 -10 11 -10 2 0 4 5 4 10 0 6 -5 10 -11 10 -5 0
-7 -4 -4 -10z"/>
<path d="M2015 1730 c-3 -5 1 -10 10 -10 9 0 13 5 10 10 -3 6 -8 10 -10 10 -2
0 -7 -4 -10 -10z"/>
<path d="M1778 1703 c7 -3 16 -2 19 1 4 3 -2 6 -13 5 -11 0 -14 -3 -6 -6z"/>
<path d="M1752 1660 c-6 -10 -8 -21 -3 -24 5 -3 11 4 14 16 8 29 4 32 -11 8z"/>
<path d="M1635 1640 c3 -5 -3 -10 -14 -10 -12 0 -21 -4 -21 -10 0 -5 7 -10 15
-10 10 0 15 -10 15 -31 0 -22 -4 -30 -13 -26 -8 3 -20 1 -28 -3 -7 -5 -18 -5
-25 1 -7 5 -21 11 -31 13 -17 4 -19 -2 -17 -52 1 -52 27 -218 39 -251 6 -16
74 -10 186 15 104 24 105 24 79 124 -12 47 -28 95 -36 107 -7 12 -11 30 -7 39
4 11 3 15 -4 11 -7 -5 -9 0 -6 12 3 10 0 22 -6 25 -6 4 -11 0 -11 -8 0 -22
-41 -14 -72 16 -16 14 -28 30 -28 37 0 6 -5 11 -11 11 -5 0 -7 -4 -4 -10z"/>
<path d="M1537 1601 c-7 -28 2 -32 29 -14 31 20 31 33 0 33 -15 0 -26 -7 -29
-19z"/>
</g>
</svg>
