<?xml version="1.0" standalone="no"?>
<!DOCTYPE svg PUBLIC "-//W3C//DTD SVG 20010904//EN"
 "http://www.w3.org/TR/2001/REC-SVG-20010904/DTD/svg10.dtd">
<svg version="1.0" xmlns="http://www.w3.org/2000/svg"
 width="500.000000pt" height="500.000000pt" viewBox="0 0 500.000000 500.000000"
 preserveAspectRatio="xMidYMid meet">
<metadata>
Created by potrace 1.16, written by Peter Selinger 2001-2019
</metadata>
<g transform="translate(0.000000,500.000000) scale(0.100000,-0.100000)"
fill="#000000" stroke="none">
<path d="M2215 4948 c-372 -47 -688 -156 -999 -343 -332 -200 -605 -470 -825
-815 -52 -81 -138 -249 -178 -345 -31 -76 -97 -275 -112 -340 -7 -27 -16 -66
-21 -85 -8 -34 -18 -90 -25 -148 -29 -215 -36 -366 -26 -507 27 -357 85 -604
204 -870 104 -231 214 -409 363 -585 98 -117 260 -278 339 -338 17 -12 55 -41
85 -64 262 -202 629 -370 940 -432 223 -44 293 -50 540 -51 263 0 371 12 580
61 353 83 691 252 986 490 183 149 385 376 519 584 50 78 184 332 203 385 5
17 24 68 42 115 91 246 131 480 136 790 3 221 0 261 -32 475 -27 182 -118 463
-206 641 -162 325 -365 585 -641 821 -276 236 -717 454 -1047 517 -93 18 -207
36 -280 45 -99 13 -444 12 -545 -1z m555 -183 c304 -45 479 -97 725 -216 284
-137 566 -354 741 -569 16 -19 32 -37 35 -40 4 -3 33 -41 66 -85 219 -297 357
-622 424 -995 19 -107 22 -159 22 -370 0 -186 -5 -267 -17 -335 -10 -49 -21
-112 -26 -140 -41 -219 -171 -537 -305 -744 -111 -173 -175 -252 -320 -397
-197 -198 -350 -308 -600 -434 -156 -79 -369 -157 -505 -185 -19 -4 -53 -11
-75 -16 -82 -18 -304 -39 -426 -39 -209 0 -396 22 -569 67 -93 24 -245 74
-285 92 -11 6 -51 23 -90 40 -80 34 -197 95 -237 122 -14 11 -30 19 -35 19 -6
0 -18 9 -28 20 -10 11 -23 20 -30 20 -7 0 -20 9 -30 20 -10 11 -22 20 -26 20
-5 0 -17 6 -26 14 -221 179 -288 243 -421 401 -170 202 -324 482 -405 735 -46
143 -65 216 -88 340 -21 112 -24 153 -23 390 0 232 3 279 22 375 65 325 152
553 309 813 78 130 149 222 303 395 33 36 210 191 280 244 286 216 657 371
1020 426 58 9 116 18 130 20 67 11 403 5 490 -8z"/>
<path d="M1555 3580 c-115 -33 -144 -40 -176 -45 -42 -6 -36 11 -99 -280 -56
-259 -72 -315 -86 -315 -8 0 -49 44 -91 99 -76 96 -203 261 -233 303 -33 45
-61 70 -76 64 -8 -3 -63 -17 -122 -32 -59 -14 -112 -30 -119 -36 -9 -7 -8 -19
3 -51 31 -85 126 -475 154 -631 50 -271 54 -287 65 -303 10 -14 20 -13 91 5
43 11 98 23 121 27 23 4 47 13 53 20 9 10 -2 65 -43 230 -30 118 -49 214 -43
212 12 -4 68 -76 206 -266 52 -72 104 -133 115 -137 12 -3 32 -1 47 5 28 10
27 8 63 240 9 58 18 112 20 120 1 9 8 51 15 94 7 43 16 80 21 82 7 5 25 -69
75 -318 15 -77 32 -141 38 -143 6 -2 59 6 117 19 96 21 111 22 150 10 55 -17
118 -10 202 22 36 13 67 21 71 18 3 -4 6 -23 6 -44 0 -21 3 -40 8 -43 4 -2 56
-12 115 -22 99 -16 108 -16 125 -1 17 16 20 15 40 -8 25 -28 69 -33 137 -14
62 17 170 93 189 133 24 51 20 53 -20 10 -29 -32 -35 -35 -31 -16 4 14 0 22
-9 22 -8 0 -14 -6 -14 -12 0 -14 -93 -19 -106 -5 -4 4 1 7 12 7 15 1 14 4 -8
16 -16 8 -28 20 -29 27 0 7 -4 2 -9 -10 -5 -13 -14 -23 -19 -23 -15 0 -23 18
-12 25 6 3 8 12 4 20 -3 9 1 15 10 15 9 0 19 4 22 10 7 11 -9 6 -62 -21 -57
-29 -70 -23 -64 27 1 7 -5 14 -14 18 -8 3 -15 14 -15 25 0 20 26 36 34 20 2
-5 3 -4 2 3 -2 7 -10 12 -20 10 -10 -2 -16 4 -16 15 -1 17 -2 17 -13 1 -21
-27 -98 -27 -127 0 -16 15 -27 19 -34 12 -7 -7 -14 -1 -22 18 -11 25 -12 24
-8 -18 2 -27 0 -39 -5 -31 -10 16 -32 6 -27 -12 1 -7 1 -9 -1 -5 -3 4 -16 3
-29 -3 -55 -20 -144 -1 -144 31 0 28 -19 34 -41 14 -17 -16 -22 -16 -29 -4 -6
8 -10 23 -10 32 0 9 -4 19 -9 22 -5 3 -14 27 -20 53 -7 27 -20 71 -30 98 -10
28 -26 89 -36 137 -15 71 -21 86 -32 77 -7 -6 -13 -18 -13 -25 0 -8 -4 -14 -8
-14 -10 0 -25 49 -42 135 -7 33 -20 100 -31 148 -10 49 -19 99 -19 112 0 18
-22 41 -33 34 -1 -1 -15 -5 -32 -9z"/>
<path d="M3081 3369 c-99 -51 -90 -180 16 -225 44 -19 123 -18 151 2 53 37 66
112 30 168 -45 69 -125 91 -197 55z"/>
<path d="M2966 3102 c-2 -4 -13 -48 -22 -97 -13 -65 -19 -153 -21 -315 -3
-160 -8 -227 -16 -232 -7 -4 -29 -8 -50 -8 -92 0 22 -53 144 -66 54 -6 56 -6
67 22 6 16 21 72 34 124 l23 95 3 -113 c3 -112 3 -113 30 -123 15 -6 71 -9
125 -7 108 3 122 11 112 62 -3 16 -5 112 -5 214 0 174 -1 185 -16 164 -9 -13
-22 -21 -29 -18 -8 3 -16 0 -18 -7 -3 -8 -10 -5 -20 7 -14 19 -16 19 -39 4
l-25 -17 17 72 c9 40 23 91 30 115 8 26 10 46 4 51 -13 11 -125 41 -156 41
-14 0 -54 9 -88 20 -70 22 -77 23 -84 12z"/>
<path d="M4035 2627 c0 -124 4 -229 8 -233 5 -5 56 -10 115 -12 155 -5 146
-20 136 229 -5 123 -11 188 -14 164 l-7 -40 -8 33 c-4 19 -11 29 -15 22 -5 -7
-19 -8 -46 -2 -51 11 -116 3 -131 -17 -12 -14 -12 -14 -6 4 3 11 2 16 -3 12
-4 -4 -13 8 -19 29 -8 27 -10 -17 -10 -189z"/>
<path d="M3581 2618 l-1 -228 129 0 c94 0 130 3 133 13 3 6 3 102 0 211 -4
165 -7 195 -17 176 l-12 -23 -23 23 c-15 15 -25 19 -28 12 -5 -16 -59 -15 -65
1 -8 21 -67 14 -80 -9 -9 -16 -12 -15 -23 16 -11 30 -13 2 -13 -192z"/>
<path d="M3135 2309 c-9 -13 -34 -229 -35 -289 -1 -71 -12 -79 -53 -38 -65 65
-184 86 -294 51 -59 -19 -120 -65 -164 -125 -25 -35 -29 -37 -39 -21 -9 16
-10 14 -9 -12 3 -70 -2 -126 -10 -121 -5 4 -12 0 -14 -6 -3 -7 -6 3 -6 22 -1
19 -5 30 -9 24 -14 -21 -47 -31 -99 -29 -29 0 -55 4 -59 8 -17 16 -26 5 -22
-28 2 -19 1 -35 -4 -35 -4 0 -9 35 -11 78 -3 72 -3 70 -5 -25 -1 -57 -6 -103
-11 -103 -5 0 -49 41 -98 90 -86 88 -108 105 -97 75 3 -8 9 -13 12 -12 4 1 9
-2 11 -8 2 -5 9 -19 17 -29 9 -14 10 -25 3 -40 -9 -18 -8 -18 9 2 l18 24 16
-24 c11 -17 13 -25 5 -26 -7 -1 -39 -4 -72 -7 -33 -2 -65 -5 -72 -6 -13 -2
-13 -25 0 -46 5 -8 4 -13 -2 -13 -6 0 -11 4 -11 10 0 5 -11 12 -25 16 -14 3
-23 10 -20 14 7 11 -5 40 -15 40 -5 0 -6 -8 -4 -17 6 -22 -21 -62 -33 -49 -4
5 -2 11 5 13 16 6 5 23 -15 23 -10 0 -13 -6 -9 -16 5 -14 4 -15 -8 -4 -9 6
-14 17 -13 23 1 7 -4 11 -10 10 -7 -2 -13 1 -13 6 0 10 -88 7 -98 -3 -3 -3 0
-6 6 -6 6 0 0 -12 -13 -26 -18 -20 -22 -30 -15 -40 6 -6 8 -23 5 -37 -5 -19
-13 -25 -28 -23 -24 2 -77 47 -77 65 0 6 -5 11 -11 11 -5 0 -7 -4 -4 -10 3 -5
-3 -10 -14 -10 -12 0 -21 -4 -21 -10 0 -5 7 -10 15 -10 10 0 15 -10 15 -31 0
-22 -4 -30 -13 -26 -8 3 -20 1 -27 -3 -8 -5 -23 -2 -37 7 -21 14 -23 14 -33
-8 -8 -20 -10 -21 -8 -4 3 36 -13 115 -24 115 -5 0 -8 -7 -4 -15 3 -8 8 -37
11 -63 13 -114 49 -318 59 -330 14 -20 118 -6 241 30 65 20 64 7 11 213 -20
77 -35 149 -32 160 3 11 20 29 37 39 l32 19 41 -44 c61 -67 106 -117 161 -184
111 -133 95 -126 230 -106 39 6 107 11 153 11 91 0 122 10 122 40 0 32 18 32
34 1 57 -109 271 -168 388 -106 61 33 68 32 68 -10 0 -31 3 -35 38 -44 20 -5
74 -12 119 -15 67 -4 84 -2 91 9 6 13 13 10 37 -15 21 -22 38 -30 65 -30 52 0
170 61 228 117 62 60 79 120 58 202 -13 52 -30 76 -99 139 -50 46 -60 67 -53
106 7 36 55 66 106 66 16 0 32 5 35 10 8 13 -35 88 -78 136 -29 34 -34 36 -74
30 -24 -3 -63 -15 -88 -26 -54 -25 -68 -25 -61 -2 3 9 10 49 16 87 5 39 17
100 26 137 9 38 14 75 10 83 -4 12 -30 15 -140 15 -85 0 -137 -4 -141 -11z
m-155 -507 c109 -54 105 -215 -7 -264 -74 -33 -136 -11 -173 62 -25 50 -25 70
1 130 35 82 104 110 179 72z m411 -269 c11 -18 19 -42 17 -54 -4 -27 -43 -57
-86 -65 l-32 -7 5 54 c3 30 8 70 10 89 2 19 4 41 4 48 1 19 58 -26 82 -65z"/>
<path d="M1295 1964 c-20 -110 -140 -182 -238 -145 -28 11 -70 4 -61 -10 3 -5
-1 -7 -8 -4 -17 6 -52 -21 -44 -34 4 -5 1 -13 -5 -17 -7 -4 -9 -3 -6 2 3 6 -3
15 -14 22 -31 20 -22 1 19 -37 68 -64 174 -87 249 -56 19 8 44 15 55 15 10 0
55 -29 99 -65 45 -36 88 -65 96 -65 26 0 9 146 -27 239 -17 42 -30 85 -30 96
0 21 -55 95 -70 95 -4 0 -11 -16 -15 -36z"/>
</g>
</svg>
