<?xml version="1.0" standalone="no"?>
<!DOCTYPE svg PUBLIC "-//W3C//DTD SVG 20010904//EN"
 "http://www.w3.org/TR/2001/REC-SVG-20010904/DTD/svg10.dtd">
<svg version="1.0" xmlns="http://www.w3.org/2000/svg"
 width="893.000000pt" height="893.000000pt" viewBox="0 0 893.000000 893.000000"
 preserveAspectRatio="xMidYMid meet">
<metadata>
Created by potrace 1.16, written by Peter Selinger 2001-2019
</metadata>
<g transform="translate(0.000000,893.000000) scale(0.100000,-0.100000)"
fill="#000000" stroke="none">
<path d="M4175 8853 c-701 -59 -1248 -218 -1830 -534 -611 -331 -1138 -811
-1537 -1399 -407 -600 -646 -1248 -735 -1995 -13 -116 -17 -226 -17 -485 0
-356 7 -449 59 -756 111 -655 410 -1350 804 -1869 25 -33 49 -64 53 -70 147
-193 434 -496 613 -645 50 -41 97 -81 105 -89 8 -8 65 -51 125 -96 492 -364
999 -605 1577 -750 735 -184 1509 -176 2241 25 855 235 1618 723 2196 1405
155 183 195 237 326 435 331 502 554 1065 655 1655 109 635 86 1227 -71 1860
-114 459 -347 978 -613 1364 -28 40 -67 97 -86 125 -46 68 -194 251 -283 351
-752 841 -1791 1362 -2912 1460 -151 13 -552 18 -670 8z m591 -323 c624 -49
1180 -219 1729 -527 72 -41 393 -248 405 -262 3 -4 50 -42 105 -85 464 -368
866 -863 1125 -1386 228 -460 362 -935 411 -1453 16 -171 6 -733 -15 -887 -94
-671 -313 -1249 -681 -1790 -160 -237 -365 -476 -576 -675 -130 -122 -375
-320 -471 -381 -23 -15 -36 -29 -32 -36 4 -6 3 -8 -4 -4 -6 3 -48 -18 -94 -48
-435 -282 -983 -494 -1521 -586 -253 -43 -401 -52 -757 -47 -351 5 -503 20
-770 77 -978 208 -1838 757 -2436 1555 -292 389 -517 840 -653 1308 -101 347
-149 665 -158 1053 -14 580 87 1129 304 1654 351 850 982 1558 1800 2019 490
276 1075 452 1668 500 147 12 473 12 621 1z"/>
<path d="M2752 6380 c-45 -16 -135 -39 -200 -51 -64 -12 -124 -25 -133 -30
-18 -9 -42 -75 -58 -159 -5 -30 -33 -158 -61 -285 -28 -126 -65 -291 -81 -365
-16 -74 -37 -161 -46 -192 -25 -91 -51 -80 -162 64 -39 51 -116 152 -171 223
-55 72 -138 180 -185 240 -206 270 -195 257 -224 252 -75 -14 -386 -94 -424
-109 -15 -6 -27 -13 -27 -17 0 -4 11 -45 24 -91 66 -230 207 -799 235 -945 30
-159 65 -346 102 -538 18 -92 37 -174 43 -181 9 -13 22 -12 91 4 44 10 145 32
225 50 80 17 152 38 160 46 13 12 3 61 -83 402 -54 213 -98 395 -97 405 0 10
6 17 12 15 12 -4 129 -154 213 -273 133 -188 337 -456 357 -469 18 -12 33 -13
73 -5 28 5 55 16 61 24 6 8 17 50 23 92 7 43 19 116 27 163 8 47 30 184 49
305 55 345 71 413 90 393 8 -8 47 -185 95 -438 57 -298 77 -381 93 -398 13
-12 25 -12 88 3 41 9 88 20 104 25 17 5 72 17 122 26 87 17 97 17 165 1 90
-21 156 -22 233 -2 60 16 179 59 224 82 42 21 54 0 48 -80 -6 -86 -2 -88 153
-116 231 -41 305 -39 293 8 -9 35 15 31 43 -7 45 -59 75 -82 105 -82 68 0 264
64 308 101 9 8 30 20 46 27 83 37 139 94 150 156 6 29 4 36 -9 36 -9 0 -16 -8
-16 -19 0 -11 -4 -23 -10 -26 -5 -3 -10 -15 -10 -25 0 -10 -9 -22 -20 -25 -11
-3 -20 -11 -20 -16 0 -5 -4 -9 -10 -9 -11 0 -8 45 4 73 9 18 -8 47 -28 47 -6
0 -4 -5 4 -10 13 -8 12 -10 -2 -10 -11 0 -18 -8 -18 -19 0 -11 -5 -23 -11 -27
-8 -4 -7 -9 2 -16 9 -6 6 -7 -11 -2 -14 5 -51 8 -82 7 -32 0 -58 3 -58 8 0 5
-12 4 -26 -1 -14 -6 -46 -10 -71 -10 -39 0 -44 2 -33 15 9 11 17 12 30 5 27
-14 60 -12 60 4 0 8 -7 17 -16 20 -8 3 -14 14 -12 24 4 23 -19 52 -39 52 -11
0 -9 -5 7 -18 22 -17 22 -18 2 -36 -16 -14 -25 -15 -40 -7 -15 8 -21 8 -25 -2
-2 -6 -4 2 -5 20 0 24 3 30 14 26 17 -6 19 18 3 34 -8 8 -25 5 -63 -13 -28
-13 -63 -24 -79 -24 -15 0 -26 -3 -26 -7 5 -30 -3 -73 -11 -68 -11 7 -9 46 3
75 4 8 9 34 11 57 4 37 1 46 -25 73 -24 23 -29 36 -25 60 3 23 0 30 -12 31
-50 2 -185 -3 -196 -7 -8 -3 -17 10 -24 35 -13 42 -28 47 -57 18 -23 -23 -45
-6 -41 31 2 15 1 21 -1 15 -2 -7 -9 -13 -14 -13 -5 0 -9 -10 -9 -22 0 -19 -2
-20 -11 -8 -8 11 -9 7 -4 -17 6 -29 4 -33 -19 -39 -15 -4 -26 -13 -26 -23 0
-10 -6 -18 -14 -18 -8 0 -12 6 -9 15 5 12 2 12 -15 3 -12 -6 -21 -15 -21 -19
3 -18 -2 -26 -9 -15 -5 8 -19 8 -57 -1 -60 -16 -113 -1 -178 48 -34 26 -41 37
-39 59 3 26 1 27 -23 21 -18 -4 -30 -2 -36 7 -4 7 -11 11 -14 7 -4 -3 -1 -15
7 -27 10 -16 10 -23 0 -33 -9 -9 -12 -8 -12 5 0 9 -4 17 -9 17 -6 0 -8 18 -5
41 6 49 -4 89 -17 68 -5 -8 -9 -30 -10 -49 l0 -35 -15 45 c-75 226 -136 449
-173 630 l-18 85 -21 -57 c-12 -32 -24 -69 -28 -83 -15 -62 -30 -20 -74 215
-17 91 -35 183 -40 205 -5 22 -23 110 -40 195 -18 85 -36 161 -42 168 -14 16
-19 15 -116 -18z"/>
<path d="M5505 6016 c-59 -27 -77 -46 -104 -106 -67 -148 48 -299 241 -316
112 -11 180 24 219 110 46 104 30 184 -52 263 -79 74 -206 95 -304 49z"/>
<path d="M5296 5542 c-2 -4 -9 -41 -15 -83 -6 -41 -24 -137 -41 -214 l-30
-139 0 -357 c0 -197 -4 -360 -8 -363 -5 -3 -46 -8 -90 -12 -45 -4 -82 -11 -82
-15 0 -15 68 -38 214 -74 181 -43 198 -47 213 -37 11 7 56 174 109 405 11 47
21 72 26 65 4 -7 8 -110 8 -229 l0 -216 61 -7 c78 -8 336 -8 367 0 l22 6 -1
372 c0 216 -4 363 -9 351 -8 -18 -9 -17 -9 6 -1 28 -31 51 -31 24 0 -12 -17
-15 -85 -15 -72 0 -85 3 -85 16 0 14 -3 14 -15 4 -12 -10 -15 -10 -15 2 0 24
49 204 75 277 28 76 30 97 14 106 -24 16 -207 53 -299 61 -30 3 -100 21 -155
40 -101 35 -130 40 -139 26z"/>
<path d="M6505 5020 c-35 -4 -40 -8 -43 -34 -3 -22 -6 -26 -13 -15 -6 10 -9 0
-10 -31 l-2 -45 -7 35 c-4 19 -8 33 -9 30 -1 -3 -6 -153 -11 -335 -5 -224 -5
-334 2 -342 13 -16 433 -19 443 -3 3 5 2 166 -2 357 -4 191 -10 335 -14 318
-6 -27 -7 -25 -8 14 -1 40 -2 43 -15 26 -9 -12 -20 -16 -35 -12 -16 4 -20 2
-14 -7 4 -6 -1 -2 -12 11 -24 27 -35 29 -35 8 0 -12 -13 -15 -56 -15 -46 0
-57 3 -61 19 -5 22 -38 29 -98 21z"/>
<path d="M7219 4665 c-4 -192 -3 -359 2 -371 5 -16 19 -23 55 -28 73 -10 340
-7 368 4 26 9 26 10 26 132 0 207 -14 535 -21 503 -6 -27 -7 -28 -8 -5 -1 26
-21 65 -21 43 0 -7 -4 -13 -10 -13 -5 0 -10 6 -10 14 0 25 -160 50 -256 40
-61 -6 -64 -8 -64 -33 0 -14 -4 -32 -9 -40 -7 -10 -12 -2 -19 30 -9 40 -10 41
-12 14 -3 -24 -4 -21 -9 15 -4 25 -9 -112 -12 -305z"/>
<path d="M5611 4141 c-14 -9 -23 -76 -60 -437 -11 -110 -23 -208 -27 -217 -10
-27 -26 -20 -71 32 -83 96 -188 136 -358 136 -118 0 -154 -9 -265 -65 -74 -37
-192 -154 -242 -241 -34 -56 -38 -72 -39 -134 -1 -38 -5 -101 -9 -140 l-7 -70
-1 63 c-1 34 -6 62 -12 62 -5 0 -10 10 -11 23 -1 21 -1 21 -9 -3 -7 -22 -8
-20 -10 15 -1 22 -4 32 -7 23 -3 -13 -15 -18 -44 -18 -26 0 -39 -4 -39 -14 0
-30 -223 -30 -234 0 -3 8 -10 14 -17 14 -12 0 -9 -69 5 -105 6 -14 5 -16 -2
-6 -8 11 -10 11 -15 0 -4 -10 -6 -8 -6 4 -1 10 -5 15 -11 12 -5 -3 -10 -34
-10 -69 0 -34 -2 -65 -5 -68 -5 -5 -108 97 -202 198 -15 17 -44 45 -64 62 -33
29 -35 30 -34 9 1 -12 8 -22 16 -23 30 -2 33 -5 19 -15 -11 -8 -12 -12 -2 -16
6 -2 12 -11 12 -19 0 -9 -4 -12 -10 -9 -5 3 -10 2 -10 -4 0 -20 19 -21 33 0
15 21 35 10 21 -13 -4 -6 -3 -8 3 -5 12 7 46 -30 38 -43 -3 -4 3 -16 12 -26
13 -13 14 -19 5 -22 -7 -2 -10 -8 -6 -13 3 -5 -18 -8 -48 -8 -51 1 -52 2 -15
9 47 9 68 26 44 36 -9 3 -17 14 -17 23 -1 13 -4 12 -20 -7 -10 -12 -32 -25
-49 -28 -27 -6 -31 -4 -31 15 0 21 -14 28 -24 12 -4 -5 -23 -5 -46 1 -23 6
-43 8 -46 5 -12 -11 8 -26 41 -33 39 -7 45 -19 15 -29 -13 -4 -27 1 -42 14
-23 23 -31 24 -66 15 -21 -6 -21 -7 -5 -20 10 -7 26 -14 36 -14 24 0 22 -36
-4 -43 -15 -4 -23 1 -31 18 -14 31 -35 38 -41 14 -3 -12 -14 -19 -28 -19 -18
0 -20 3 -11 12 18 18 14 46 -8 58 -11 6 -20 17 -20 25 0 8 -5 15 -10 15 -7 0
-8 -6 -1 -17 7 -13 5 -21 -7 -30 -16 -11 -16 -12 1 -13 9 0 17 -7 17 -15 0
-17 18 -52 38 -73 7 -8 11 -19 9 -25 -4 -14 -57 -28 -57 -16 0 5 5 9 10 9 6 0
10 7 10 15 0 8 -4 15 -9 15 -5 0 -11 10 -15 23 l-6 22 -15 -22 c-9 -13 -19
-23 -23 -23 -12 0 -12 63 -1 77 16 19 -20 17 -49 -3 -21 -14 -22 -14 -22 5 0
12 -6 21 -13 21 -8 0 -20 11 -27 25 -7 14 -20 25 -28 25 -20 0 -14 -10 49 -81
61 -69 177 -203 248 -289 25 -29 50 -58 56 -64 6 -6 28 -33 50 -61 99 -123
101 -125 174 -125 36 1 95 8 131 16 40 9 149 18 282 23 148 5 221 11 231 20
12 9 14 25 10 67 -3 30 -2 54 3 54 5 0 25 -23 44 -51 83 -122 212 -210 357
-243 158 -36 304 -10 425 76 16 11 32 16 38 13 5 -3 10 -35 10 -70 0 -51 3
-64 17 -70 27 -10 311 -45 371 -45 l52 0 0 35 c0 19 4 35 9 35 4 0 30 -27 57
-59 69 -84 79 -88 161 -67 132 32 261 105 371 210 54 52 65 69 83 128 16 52
20 88 18 151 -6 123 -42 191 -164 303 -113 104 -127 123 -127 179 -2 87 71
145 189 153 72 5 73 5 73 32 0 15 -10 42 -23 61 -88 130 -110 158 -145 192
l-40 39 -83 -21 c-69 -18 -122 -39 -241 -99 -5 -2 -8 8 -8 23 0 30 41 267 76
441 13 67 24 128 24 136 0 13 -35 16 -217 21 -120 3 -227 9 -238 12 -11 3 -26
1 -34 -4z m-282 -918 c86 -42 139 -130 140 -233 2 -107 -61 -210 -154 -254
-173 -82 -362 62 -342 259 10 103 77 209 152 241 53 23 144 18 204 -13z m652
-393 c128 -110 144 -207 45 -274 -39 -27 -63 -36 -101 -38 -31 -2 -49 1 -48 7
1 6 7 78 13 160 13 170 17 198 29 193 5 -2 33 -23 62 -48z"/>
<path d="M2335 3548 c-2 -7 -11 -38 -19 -68 -28 -103 -108 -196 -199 -234 -61
-25 -154 -30 -217 -11 -87 27 -119 22 -163 -25 -21 -22 -43 -40 -49 -40 -7 0
-7 -4 1 -14 9 -11 7 -15 -11 -20 l-23 -6 25 -21 c139 -114 290 -146 446 -94
98 33 123 32 172 -7 22 -18 89 -72 148 -121 60 -48 116 -86 124 -85 21 4 24
55 10 167 -13 102 -33 187 -55 235 -21 47 -45 115 -59 171 -16 63 -38 105 -77
150 -33 37 -47 43 -54 23z"/>
<path d="M3168 3004 c-20 -10 -28 -23 -28 -42 l0 -27 -20 25 c-10 14 -22 21
-26 17 -4 -4 -2 -7 4 -7 7 0 12 -9 12 -20 0 -12 7 -20 16 -20 12 0 14 -7 9
-31 -5 -20 -3 -29 3 -25 5 3 12 -3 15 -14 3 -11 1 -18 -3 -15 -5 3 -11 -9 -15
-25 -6 -25 -9 -29 -21 -19 -8 6 -26 9 -42 6 -32 -6 -71 21 -69 48 2 19 -38 32
-48 15 -3 -6 -18 -10 -33 -10 -15 0 -22 -4 -17 -8 6 -4 12 -23 14 -43 2 -34 0
-37 -31 -44 -33 -8 -43 -9 -75 -6 -16 1 -16 3 -3 12 12 8 10 9 -10 7 -20 -2
-26 2 -28 21 -3 15 3 30 14 38 17 12 16 13 -4 13 -15 0 -22 6 -22 20 0 11 -4
20 -10 20 -9 0 -13 -52 -14 -148 0 -20 -2 -21 -12 -8 -6 9 -14 13 -17 10 -9
-10 -19 102 -13 148 7 42 6 42 -8 18 -15 -25 -15 -24 -16 24 0 27 -3 46 -7 42
-9 -9 -6 -61 13 -176 8 -52 24 -153 35 -225 25 -163 48 -280 61 -322 9 -30 13
-33 49 -33 44 0 300 50 399 78 63 18 65 20 68 54 2 20 -7 73 -19 119 -11 46
-25 100 -29 119 -8 33 -14 54 -46 175 -21 80 -44 180 -44 193 0 6 12 23 27 37
32 29 30 30 -9 9z"/>
</g>
</svg>
