<svg xmlns="http://www.w3.org/2000/svg" width="500" height="500" viewBox="0 0 500 500" version="1.1"><path d="M 264.464 152.058 C 264.104 152.640, 264.129 158.217, 264.518 164.451 L 265.226 175.786 259.863 176.918 C 256.913 177.542, 252.054 179.239, 249.063 180.690 C 243.698 183.295, 243.509 183.314, 234.563 182.098 C 229.579 181.420, 224.760 180.656, 223.855 180.399 C 221.219 179.651, 219.245 182.549, 218.527 188.224 C 218.159 191.126, 216.768 199.768, 215.435 207.430 C 212.460 224.524, 211.470 226, 202.981 226 C 198.517 226, 196.911 225.560, 195.437 223.931 C 192.512 220.698, 193.198 207.024, 197.071 191.370 C 198.772 184.495, 199.941 178.287, 199.667 177.575 C 198.557 174.683, 177.286 171.661, 175.397 174.127 C 173.800 176.210, 171 184.278, 171 186.796 C 171 189.056, 174.887 204.520, 179.346 220 C 183.973 236.062, 184.500 239.588, 182.685 242.357 C 181.243 244.559, 181.236 244.877, 182.619 245.407 C 185.956 246.688, 193.833 245.840, 200.500 243.483 C 204.350 242.122, 208.037 241.007, 208.693 241.004 C 209.376 241.002, 210.016 242.771, 210.193 245.145 C 210.486 249.108, 210.698 249.350, 215 250.656 C 217.475 251.407, 222.976 252.308, 227.225 252.657 C 233.838 253.201, 235.041 253.056, 235.580 251.652 C 235.926 250.750, 236.537 250.214, 236.938 250.462 C 237.814 251.003, 237.733 251.625, 238.905 235.500 C 240.203 217.648, 241.068 216.065, 245.750 222.975 C 248.454 226.966, 248.596 229.641, 246.250 232.404 C 244.679 234.255, 244.674 234.331, 246.204 233.148 C 247.752 231.952, 247.832 232.098, 247.079 234.725 C 245.628 239.784, 247.847 241.430, 256.533 241.737 C 261.023 241.896, 264 241.602, 264 241.001 C 264 240.450, 264.679 240, 265.508 240 C 267.086 240, 267.091 239.979, 263.752 246.687 C 262.451 249.301, 262.420 249.776, 263.583 249.330 C 264.395 249.018, 265 249.391, 265 250.202 C 265 253.533, 267.562 255.076, 274.513 255.930 C 278.356 256.403, 284.314 257.696, 287.753 258.804 C 291.192 259.912, 293.706 260.333, 293.339 259.739 C 292.910 259.045, 293.295 258.899, 294.418 259.330 C 295.378 259.699, 296.603 260, 297.141 260 C 297.678 260, 297.855 260.425, 297.534 260.945 C 297.194 261.495, 298.527 261.746, 300.725 261.546 C 302.801 261.357, 305.115 261.157, 305.867 261.101 C 306.726 261.038, 307.039 260.257, 306.710 258.999 C 306.422 257.898, 306.540 257.216, 306.972 257.482 C 307.916 258.066, 309.226 252.175, 308.437 250.897 C 308.132 250.404, 308.367 250, 308.960 250 C 309.627 250, 309.784 248.989, 309.373 247.351 C 308.897 245.454, 309.042 244.908, 309.882 245.427 C 310.724 245.947, 310.898 245.262, 310.500 243 C 310.143 240.973, 310.312 240.075, 310.972 240.483 C 311.538 240.832, 312.008 240.754, 312.017 240.309 C 312.066 238.030, 315.058 225.620, 315.796 224.637 C 316.265 224.012, 317.469 220.575, 318.472 217 C 319.474 213.425, 321.377 208.197, 322.700 205.383 C 324.339 201.894, 324.894 199.428, 324.444 197.633 C 323.998 195.857, 324.184 195, 325.014 195 C 325.930 195, 325.960 194.657, 325.131 193.658 C 324.519 192.920, 324.234 192.100, 324.498 191.835 C 324.763 191.571, 322.057 191.775, 318.485 192.288 C 312.824 193.102, 311.091 192.927, 304.982 190.924 C 300.306 189.391, 297.640 188.960, 296.973 189.627 C 296.422 190.178, 295.313 194.377, 294.507 198.960 C 293.701 203.542, 292.808 207.526, 292.521 207.812 C 291.835 208.499, 291.887 204.897, 292.970 177.031 C 293.606 160.655, 293.560 153.175, 292.818 152.281 C 291.462 150.646, 265.463 150.442, 264.464 152.058 M 308.500 162.403 C 303.878 164.443, 301.756 167.480, 301.247 172.785 C 300.846 176.959, 301.155 178.030, 303.596 180.931 C 307.134 185.137, 311.542 187, 317.952 187 C 322.047 187, 323.551 186.480, 326.138 184.168 C 328.827 181.766, 329.379 180.471, 329.780 175.634 C 330.244 170.041, 330.176 169.858, 326.240 166.113 C 320.907 161.041, 314.583 159.718, 308.500 162.403 M 359 188.906 C 359 189.405, 358.030 189.559, 356.844 189.249 C 355.462 188.888, 354.924 189.067, 355.345 189.749 C 355.759 190.419, 355.262 190.620, 354.001 190.290 C 352.838 189.986, 352 190.259, 352 190.942 C 352 191.589, 351.590 191.864, 351.088 191.554 C 350.006 190.886, 350.262 193.596, 351.388 194.721 C 351.816 195.149, 352.017 194.825, 351.833 194 C 351.612 193.005, 352.341 192.449, 354 192.349 C 355.375 192.265, 356.837 192.096, 357.250 191.974 C 357.663 191.851, 358.413 191.694, 358.917 191.625 C 359.421 191.556, 360.171 191.162, 360.583 190.750 C 362.028 189.305, 368 189.909, 368 191.500 C 368 192.325, 368.477 193, 369.059 193 C 369.641 193, 369.840 192.550, 369.500 192 C 369.160 191.450, 369.321 191, 369.858 191 C 370.394 191, 371.060 191.563, 371.338 192.250 C 371.615 192.938, 371.878 192.544, 371.921 191.375 C 371.981 189.769, 371.237 189.097, 368.875 188.625 C 364.305 187.711, 359 187.862, 359 188.906 M 398.180 189.903 C 392.098 192.003, 389.456 193.959, 392.550 194.070 C 394.449 194.139, 394.448 194.163, 392.500 195 C 390.961 195.661, 390.875 195.876, 392.128 195.930 C 394.397 196.028, 396.533 193.388, 394.792 192.637 C 394.081 192.330, 394.743 192.337, 396.263 192.651 C 397.796 192.969, 399.670 192.689, 400.472 192.023 C 401.289 191.345, 403.132 191.080, 404.709 191.414 C 406.244 191.739, 408.850 191.593, 410.500 191.089 C 412.150 190.584, 412.911 190.133, 412.191 190.086 C 411.471 190.039, 411.160 189.550, 411.500 189 C 412.531 187.332, 403.938 187.914, 398.180 189.903 M 329.750 189.689 C 327.836 190.189, 327.450 191.542, 328.956 192.473 C 329.482 192.798, 329.659 193.725, 329.349 194.532 C 329.040 195.339, 329.284 196, 329.893 196 C 330.502 196, 331 196.838, 331 197.861 C 331 199.323, 331.554 199.617, 333.582 199.229 C 335.002 198.958, 336.399 198.123, 336.687 197.373 C 336.974 196.624, 337.683 196.304, 338.261 196.661 C 338.961 197.094, 339.093 196.215, 338.656 194.030 C 338.295 192.226, 338 190.356, 338 189.875 C 338 188.981, 332.901 188.866, 329.750 189.689 M 415.168 191.469 C 415.786 192.826, 416.680 193.698, 417.154 193.405 C 417.628 193.112, 418.799 193.663, 419.758 194.630 C 421.340 196.227, 421.345 196.330, 419.816 195.751 C 418.576 195.281, 418.171 195.625, 418.279 197.057 C 418.387 198.492, 418.926 198.841, 420.338 198.393 C 421.593 197.994, 422.015 198.166, 421.566 198.893 C 420.949 199.892, 422.961 200.518, 425.373 200.078 C 425.853 199.990, 425.970 200.635, 425.634 201.511 C 425.248 202.518, 425.426 202.855, 426.119 202.427 C 426.849 201.975, 426.991 202.454, 426.543 203.866 C 426.173 205.030, 426.139 206.416, 426.467 206.947 C 427.309 208.309, 430 207.080, 430 205.334 C 430 204.535, 429.632 204.110, 429.182 204.388 C 428.110 205.050, 425.684 198.320, 426.512 196.981 C 426.862 196.414, 426.573 196.074, 425.870 196.225 C 425.166 196.376, 424.570 195.960, 424.545 195.300 C 424.520 194.640, 423.847 193.515, 423.048 192.800 C 421.795 191.678, 421.778 191.739, 422.921 193.250 C 423.649 194.213, 423.795 195, 423.245 195 C 422.004 195, 419.423 192.012, 420.628 191.970 C 421.107 191.953, 420.709 191.479, 419.742 190.915 C 418.775 190.352, 417.538 190.168, 416.992 190.505 C 416.446 190.842, 416 190.641, 416 190.059 C 416 189.477, 415.560 189, 415.021 189 C 414.423 189, 414.480 189.959, 415.168 191.469 M 332.458 193.067 C 332.096 193.654, 332.713 194.374, 333.830 194.666 C 335.187 195.021, 335.674 195.746, 335.296 196.849 C 334.887 198.044, 335.173 197.948, 336.334 196.500 C 337.215 195.400, 337.944 194.050, 337.953 193.500 C 337.962 192.950, 337.533 193.175, 337 194 C 336.172 195.282, 336.028 195.246, 336.015 193.750 C 335.999 191.836, 333.514 191.359, 332.458 193.067 M 343.156 197.460 C 340.574 201.836, 340.555 202, 342.607 202 C 343.625 202, 344.003 201.450, 343.638 200.500 C 343.322 199.675, 343.525 199, 344.090 199 C 344.656 199, 344.859 198.581, 344.543 198.069 C 344.226 197.557, 344.425 196.856, 344.984 196.510 C 345.543 196.165, 346 196.434, 346 197.108 C 346 197.782, 346.266 198.067, 346.592 197.742 C 346.917 197.416, 346.762 196.398, 346.248 195.478 C 345.451 194.054, 344.992 194.348, 343.156 197.460 M 374.510 195.016 C 374.856 195.575, 375.634 195.726, 376.239 195.352 C 376.973 194.899, 377.099 195.299, 376.617 196.555 C 376.220 197.591, 376.214 198.119, 376.605 197.728 C 376.996 197.337, 377.893 197.496, 378.598 198.082 C 379.635 198.942, 379.652 198.654, 378.690 196.581 C 378.036 195.170, 376.686 194.012, 375.691 194.008 C 374.696 194.004, 374.165 194.457, 374.510 195.016 M 262.035 198.934 C 260.536 201.735, 260.763 205.216, 262.616 207.862 C 265.018 211.291, 266.154 209.166, 265.391 202.671 C 264.693 196.730, 263.767 195.699, 262.035 198.934 M 349.250 208.716 C 350.762 208.945, 352 209.553, 352 210.066 C 352 210.580, 352.450 211, 353 211 C 353.550 211, 354 210.325, 354 209.500 C 354 208.407, 352.983 208.041, 350.250 208.150 C 347.234 208.270, 347.038 208.381, 349.250 208.716 M 253.393 234.582 C 253.727 235.452, 254.014 236.689, 254.032 237.332 C 254.049 237.974, 254.724 237.627, 255.532 236.559 C 256.684 235.035, 256.731 234.447, 255.750 233.824 C 253.746 232.552, 252.738 232.875, 253.393 234.582 M 207.656 258.521 C 201.692 259.752, 196.223 261.375, 195.503 262.129 C 194.783 262.883, 193.495 268.675, 192.641 275 C 189.764 296.327, 187.995 301.203, 181.759 305.005 C 177.547 307.573, 172.407 307.630, 171.065 305.122 C 170.134 303.383, 166.956 286.591, 165.532 275.885 C 164.535 268.393, 163.684 267.829, 156 269.560 C 152.425 270.366, 146.800 271.487, 143.500 272.051 C 133.041 273.838, 132.656 274.327, 134.983 282.884 C 138.926 297.382, 147.080 331.994, 148.139 338.723 C 148.871 343.377, 149.762 346.399, 150.199 345.712 C 150.783 344.794, 150.973 344.821, 150.985 345.821 C 150.996 346.801, 151.415 346.728, 152.605 345.537 C 153.503 344.640, 155.009 344.185, 156.020 344.506 C 157.016 344.822, 158.993 344.789, 160.415 344.432 C 162.333 343.951, 163 343.138, 163 341.283 C 163 339.116, 162.667 338.867, 160.500 339.411 C 158.452 339.925, 158 339.673, 158 338.019 C 158 336.909, 158.637 336, 159.417 336 C 160.196 336, 161.040 335.438, 161.292 334.750 C 161.658 333.750, 162.015 333.750, 163.075 334.750 C 163.804 335.438, 165.196 336, 166.169 336 C 167.351 336, 167.741 336.511, 167.346 337.541 C 166.970 338.522, 167.254 338.976, 168.127 338.791 C 168.955 338.615, 169.383 339.195, 169.206 340.250 C 169.045 341.212, 169.409 342, 170.015 342 C 170.622 342, 170.859 341.581, 170.543 341.069 C 170.226 340.557, 170.425 339.856, 170.984 339.510 C 171.543 339.165, 172 339.584, 172 340.441 C 172 341.335, 172.856 342, 174.008 342 C 175.736 342, 175.993 341.394, 175.852 337.657 C 175.681 333.141, 176.410 331, 178.118 331 C 178.668 331, 178.819 331.483, 178.454 332.074 C 178.088 332.667, 178.702 332.578, 179.829 331.875 C 180.950 331.175, 181.785 330.129, 181.684 329.551 C 181.583 328.973, 182.747 328.454, 184.270 328.399 C 186.634 328.312, 186.949 328.606, 186.417 330.399 C 185.798 332.485, 185.804 332.486, 187.365 330.500 C 188.229 329.400, 189.007 328.837, 189.093 329.250 C 189.179 329.663, 189.363 330.450, 189.500 331 C 189.637 331.550, 189.813 332.337, 189.890 332.750 C 189.967 333.163, 190.508 332.825, 191.091 332 C 192.023 330.682, 192.103 330.681, 191.746 331.991 C 191.228 333.889, 193.627 336.349, 195.104 335.436 C 195.720 335.055, 196.575 335.312, 197.004 336.007 C 197.578 336.934, 198.089 336.703, 198.928 335.135 C 199.556 333.961, 200.955 333, 202.035 333 C 203.116 333, 204 332.583, 204 332.073 C 204 331.563, 205.350 331.316, 207 331.525 C 209.068 331.787, 210 331.476, 210 330.524 C 210 329.764, 210.616 328.527, 211.368 327.775 C 212.121 327.022, 213.051 325.415, 213.435 324.203 C 214.357 321.300, 215.748 321.424, 219.445 324.738 C 221.125 326.244, 220.287 325.139, 217.582 322.283 C 214.877 319.427, 212.177 317.367, 211.582 317.705 C 210.987 318.044, 210.844 317.942, 211.264 317.480 C 211.684 317.017, 210.810 315.368, 209.322 313.815 L 206.617 310.991 209.705 307.745 C 216.433 300.676, 220.145 289.543, 222.089 270.603 C 223.242 259.362, 222.802 255.931, 220.231 256.142 C 219.279 256.220, 213.620 257.291, 207.656 258.521 M 233.898 264.287 C 224.821 270.395, 228.137 284.665, 239.063 286.511 C 243.616 287.280, 249.811 286.411, 252.046 284.690 C 259.079 279.275, 258.390 268.647, 250.701 263.960 C 246.125 261.169, 238.304 261.322, 233.898 264.287 M 104.250 288.662 C 103.563 288.940, 103 289.606, 103 290.142 C 103 290.679, 103.563 290.800, 104.250 290.412 C 105.250 289.848, 105.250 289.976, 104.250 291.053 C 102.681 292.744, 102.560 294.840, 104.122 293.278 C 104.739 292.661, 105.823 292.379, 106.532 292.650 C 107.240 292.922, 108.115 292.212, 108.477 291.072 C 109.305 288.464, 110.098 288.465, 112.333 291.076 C 113.852 292.850, 114.358 292.959, 115.806 291.826 C 117.327 290.636, 117.361 290.678, 116.137 292.239 C 115.387 293.195, 114.405 293.751, 113.956 293.473 C 113.506 293.195, 112.902 293.350, 112.613 293.817 C 111.905 294.962, 115.203 294.961, 116.661 293.815 C 117.390 293.242, 118.099 293.350, 118.565 294.106 C 119.037 294.869, 118.886 295.048, 118.155 294.595 C 117.520 294.203, 117.004 294.246, 117.008 294.691 C 117.012 295.136, 118.123 296.014, 119.477 296.642 L 121.939 297.783 120.421 294.847 C 117.717 289.618, 109.588 286.508, 104.250 288.662 M 228.548 292.923 C 228.318 293.295, 228.537 299.202, 229.034 306.050 C 230.430 325.263, 230.292 334.326, 228.613 333.682 C 226.089 332.713, 228.108 337.292, 231.906 341.149 C 239.854 349.219, 242 352.040, 242 354.413 C 242 355.771, 241.550 357.160, 241 357.500 C 240.450 357.840, 240 358.766, 240 359.559 C 240 360.662, 241.468 360.996, 246.250 360.985 C 249.688 360.976, 253.090 360.595, 253.811 360.138 C 254.832 359.491, 255.126 354.110, 255.136 335.903 C 255.143 323.031, 255.559 308.248, 256.060 303.050 C 256.683 296.594, 256.639 293.395, 255.923 292.953 C 254.523 292.087, 229.081 292.060, 228.548 292.923 M 99.251 298.710 C 98.441 301.032, 98.509 301.667, 99.567 301.667 C 101.344 301.667, 102.224 299.223, 101.143 297.290 C 100.455 296.062, 100.075 296.347, 99.251 298.710 M 346 298.347 C 341.914 299.816, 339.142 301.293, 339.141 302 C 339.141 302.275, 338.714 303.625, 338.192 305 C 335.475 312.162, 333.073 341.999, 335.214 342 C 336.401 342, 341 349.337, 341 351.230 C 341 352.201, 339.215 354.891, 337.034 357.207 C 331.880 362.679, 331.215 365.800, 333.602 373.322 C 334.238 375.324, 334.148 375.374, 332.394 373.992 C 330.646 372.615, 330.606 372.635, 331.872 374.250 C 332.627 375.212, 333.842 376, 334.573 376 C 335.303 376, 336.365 376.788, 336.932 377.750 C 337.612 378.904, 338.225 379.135, 338.732 378.427 C 339.732 377.030, 343.315 375.682, 342.493 377.011 C 342.157 377.555, 342.359 378, 342.941 378 C 343.523 378, 344 377.523, 344 376.941 C 344 376.359, 344.450 376.160, 345 376.500 C 345.550 376.840, 346 376.615, 346 376 C 346 375.385, 346.450 375.160, 347 375.500 C 347.550 375.840, 348 375.566, 348 374.892 C 348 374.218, 348.282 373.949, 348.627 374.293 C 351.102 376.769, 366.512 361.823, 368.137 355.371 C 369.988 348.019, 367.390 341.751, 358.966 333.243 C 352.711 326.925, 351.905 325.687, 352.184 322.819 C 352.592 318.613, 357.658 315, 363.148 315 C 369.071 315, 368.652 313.160, 360.135 301.750 C 357.048 297.615, 356.130 297.006, 353.045 297.044 C 351.095 297.068, 347.925 297.654, 346 298.347 M 378.789 299.898 C 370.540 307.267, 378.646 320.109, 388.573 315.398 C 393.140 313.231, 395 310.434, 395 305.732 C 395 297.344, 385.481 293.918, 378.789 299.898 M 397.487 315.115 C 389.821 323.017, 385.135 323.878, 376.139 319.034 C 373.190 317.447, 370.153 316.388, 369.389 316.681 C 367.274 317.493, 367.678 325.002, 370.509 337.482 C 371.879 343.522, 373 350.384, 373 352.732 C 373 356.313, 373.317 357, 374.971 357 C 376.472 357, 377.917 354.911, 381.022 348.250 C 383.266 343.438, 385.656 338.380, 386.333 337.012 C 387.168 335.323, 388.678 334.336, 391.032 333.941 C 401.694 332.148, 413.520 320.128, 411.039 313.603 C 410.552 312.322, 409.407 310.986, 408.495 310.636 C 404.689 309.176, 402.309 310.144, 397.487 315.115 M 197.056 325.156 C 194.755 327.019, 194.733 327.158, 196.473 328.796 C 197.468 329.733, 197.967 329.938, 197.582 329.250 C 197.088 328.369, 197.793 328, 199.972 328 C 201.848 328, 203.298 327.388, 203.660 326.443 C 203.989 325.586, 204.875 325.122, 205.629 325.411 C 206.419 325.714, 207 325.294, 207 324.419 C 207 323.284, 206.571 323.141, 205.303 323.851 C 204.369 324.373, 202.670 324.445, 201.526 324.010 C 200.070 323.456, 198.731 323.800, 197.056 325.156 M 216.250 325.718 C 215.563 325.965, 215 327.254, 215 328.583 C 215 330.434, 215.535 331, 217.287 331 C 218.831 331, 219.622 330.372, 219.720 329.067 C 219.889 326.828, 218.063 325.066, 216.250 325.718 M 152.370 338.250 C 152.701 339.488, 152.979 340.864, 152.986 341.309 C 152.994 341.754, 153.450 341.840, 154 341.500 C 155.688 340.457, 155.188 336, 153.383 336 C 152.195 336, 151.926 336.596, 152.370 338.250" stroke="none" fill="#cd7d2b" fill-rule="evenodd"/><path d="M 220 5.013 C 195.819 7.789, 165.693 16.660, 142.691 27.778 C 116.131 40.616, 95.465 55.357, 74.487 76.429 C 54.596 96.409, 40.776 115.391, 28.931 139 C 10.635 175.469, 2.710 209.082, 2.642 250.500 C 2.607 272.183, 3.890 284.839, 8.118 304.500 C 16.446 343.230, 35.790 381.945, 62.247 412.837 C 68.003 419.557, 86.569 437.566, 93.578 443.226 C 127.435 470.567, 165.292 487.527, 209.559 495.183 C 227.203 498.235, 270.377 498.512, 287.500 495.682 C 333.859 488.023, 373.379 470.292, 407.388 441.893 C 465.053 393.741, 497.357 325.178, 497.329 251 C 497.304 184.968, 471.968 123.433, 425.500 76.544 C 388.798 39.509, 340.937 14.890, 289.098 6.381 C 277.951 4.551, 231.955 3.641, 220 5.013 M 233.500 22.587 C 173.156 28.585, 123.769 52.020, 84.282 93.396 C 57.324 121.642, 41.131 150.297, 28.585 191.955 C 25.691 201.562, 22.215 225.073, 21.555 239.500 C 20.833 255.302, 22.128 277.770, 24.546 291.371 C 28.099 311.353, 38.010 339.827, 47.736 358 C 51.743 365.486, 66.383 388.661, 67.952 390 C 68.274 390.275, 71.532 394.100, 75.192 398.500 C 84.045 409.144, 101.436 425.922, 109.397 431.500 C 110.967 432.600, 113.432 434.453, 114.876 435.618 C 123.811 442.830, 148.226 456.845, 160.146 461.604 C 188.705 473.007, 205.888 477.065, 234.492 479.158 C 316.959 485.195, 396.244 445.254, 442.247 374.500 C 458.379 349.688, 469.059 322.686, 475.229 291.112 C 477.269 280.674, 477.499 276.567, 477.499 250.500 C 477.500 226.756, 477.178 219.869, 475.723 212.500 C 473.632 201.910, 469.331 184.969, 467.471 180 C 466.751 178.075, 464.731 172.675, 462.983 168 C 449.015 130.641, 419.808 92.350, 386.828 68.158 C 372.331 57.524, 370.088 56.091, 357.347 49.323 C 340.307 40.271, 325.007 34.332, 305 29.002 C 303.075 28.490, 300.494 27.801, 299.264 27.472 C 286.626 24.092, 247.556 21.190, 233.500 22.587 M 154.500 142.108 C 152.850 142.642, 147.749 143.926, 143.163 144.960 C 138.578 145.994, 134.577 147.090, 134.271 147.395 C 133.966 147.701, 131.989 155.724, 129.879 165.225 C 127.768 174.726, 125.172 186.325, 124.110 191 C 123.048 195.675, 121.878 200.963, 121.510 202.750 C 120.198 209.124, 119.240 208.194, 98 179.948 C 91.675 171.537, 85.325 163.299, 83.889 161.642 L 81.278 158.628 74.389 160.420 C 57.170 164.899, 53.825 166.101, 54.402 167.605 C 54.713 168.414, 57.469 178.253, 60.527 189.468 C 65.749 208.616, 68.535 221.253, 74.049 250.794 C 76.997 266.586, 77.077 266.697, 84.076 264.681 C 87.059 263.821, 92.448 262.611, 96.051 261.991 C 99.654 261.371, 103.240 260.469, 104.021 259.987 C 105.205 259.255, 104.565 255.628, 100.147 238.022 C 97.237 226.424, 95.032 216.405, 95.247 215.759 C 95.463 215.112, 97.858 217.619, 100.570 221.331 C 103.281 225.042, 107.315 230.423, 109.533 233.289 C 111.751 236.155, 116.219 242.224, 119.462 246.776 C 122.715 251.341, 126.305 255.289, 127.468 255.581 C 129.518 256.096, 135 254.591, 135 253.514 C 135 252.646, 137.900 233.976, 138.963 228 C 139.502 224.975, 140.697 218.225, 141.620 213 C 142.543 207.775, 143.614 202.888, 144 202.140 C 144.732 200.723, 146.891 209.729, 151.385 232.943 C 152.816 240.337, 154.401 246.801, 154.907 247.307 C 155.467 247.867, 159.689 247.400, 165.697 246.113 C 171.126 244.951, 176.999 244, 178.749 244 C 185.277 244, 185.251 240.617, 178.541 217 C 173.137 197.979, 168.674 178.853, 163.724 153.500 C 161.168 140.406, 160.874 140.042, 154.500 142.108 M 411.831 189.874 C 413.614 191.004, 407.677 192.208, 404.389 191.383 C 403.055 191.048, 401.315 191.324, 400.500 192 C 399.672 192.687, 397.815 192.973, 396.263 192.651 C 394.743 192.337, 394.081 192.330, 394.792 192.637 C 396.533 193.388, 394.397 196.028, 392.128 195.930 C 390.862 195.875, 390.945 195.656, 392.500 194.947 C 394.300 194.126, 394.250 194.058, 392 194.268 C 390.246 194.431, 389.547 195.055, 389.657 196.357 C 389.771 197.707, 389.513 197.913, 388.714 197.114 C 387.914 196.314, 387.013 196.579, 385.411 198.084 L 383.208 200.153 380.354 196.507 C 378.784 194.502, 376.262 192.206, 374.750 191.405 C 372.238 190.075, 371.993 190.102, 371.921 191.724 C 371.874 192.772, 371.635 192.987, 371.338 192.250 C 371.060 191.563, 370.394 191, 369.858 191 C 369.321 191, 369.160 191.450, 369.500 192 C 369.840 192.550, 369.641 193, 369.059 193 C 368.477 193, 368 192.325, 368 191.500 C 368 189.759, 361.525 189.342, 360.490 191.016 C 360.144 191.575, 359.474 191.793, 359 191.500 C 358.526 191.207, 357.876 191.392, 357.556 191.910 C 357.218 192.457, 355.788 192.513, 354.152 192.044 C 351.161 191.186, 347.556 192.472, 348.531 194.050 C 348.847 194.562, 348.357 194.691, 347.437 194.337 C 346.069 193.813, 345.892 194.130, 346.450 196.099 C 346.825 197.419, 346.764 198.035, 346.316 197.467 C 345.404 196.312, 344.331 196.307, 341.737 197.448 C 339.474 198.444, 336.935 196.390, 337.694 194.177 C 338.124 192.923, 337.865 193.005, 336.666 194.500 C 335.785 195.600, 335.056 196.950, 335.047 197.500 C 335.038 198.050, 335.508 197.825, 336.091 197 C 336.965 195.765, 337.083 195.755, 336.761 196.945 C 336.546 197.740, 335.162 198.714, 333.685 199.109 C 331.457 199.705, 331 199.501, 331 197.914 C 331 196.861, 330.502 196, 329.893 196 C 329.284 196, 329.032 195.358, 329.334 194.573 C 330.054 192.696, 327.465 190.607, 325.400 191.400 C 324.083 191.905, 324.009 192.306, 325.010 193.512 C 325.986 194.688, 325.987 195, 325.014 195 C 324.184 195, 323.998 195.857, 324.444 197.633 C 324.893 199.424, 324.340 201.902, 322.714 205.383 C 321.399 208.197, 319.543 213.200, 318.591 216.500 C 317.638 219.800, 316.107 224.075, 315.189 226 C 312.818 230.972, 312.108 259.015, 314.307 260.840 C 315.333 261.691, 319.265 261.981, 327.143 261.784 L 338.500 261.500 339 238.661 L 339.500 215.823 342.254 213.456 C 343.769 212.154, 346.694 210.754, 348.754 210.345 L 352.500 209.601 349.500 208.919 C 346.564 208.251, 346.580 208.234, 350.250 208.118 C 352.783 208.038, 354 208.436, 354 209.345 C 354 210.085, 354.900 211.505, 356 212.500 C 357.891 214.211, 358 215.580, 358 237.548 C 358 257.816, 358.202 260.864, 359.582 261.393 C 362.304 262.437, 381.029 262.055, 383.166 260.911 C 385.141 259.854, 385.181 259.260, 384.523 241.038 C 383.736 219.272, 384.364 215.660, 389.550 212.106 C 392.287 210.231, 393.651 209.934, 396.965 210.494 C 403.281 211.561, 403.500 212.476, 403.500 237.784 C 403.500 256.504, 403.740 260.221, 405 261.019 C 407.435 262.562, 427.546 262.252, 428.875 260.651 C 429.640 259.729, 429.985 251.010, 429.964 233.115 C 429.936 208.932, 429.802 206.949, 428.217 207.214 C 426.904 207.433, 426.545 206.848, 426.691 204.727 C 426.797 203.202, 426.464 202.213, 425.953 202.529 C 425.441 202.845, 425.298 202.387, 425.634 201.511 C 425.970 200.635, 425.853 199.990, 425.373 200.078 C 422.961 200.518, 420.949 199.892, 421.566 198.893 C 422.015 198.166, 421.593 197.994, 420.338 198.393 C 418.926 198.841, 418.387 198.492, 418.279 197.057 C 418.171 195.625, 418.576 195.281, 419.816 195.751 C 421.345 196.330, 421.340 196.227, 419.758 194.630 C 418.799 193.663, 417.628 193.112, 417.154 193.405 C 416.680 193.698, 415.786 192.826, 415.168 191.469 C 414.549 190.111, 413.246 189.007, 412.271 189.015 C 410.923 189.027, 410.818 189.232, 411.831 189.874 M 332.694 192.639 C 331.761 193.573, 332.888 195, 334.559 195 C 335.352 195, 336 194.325, 336 193.500 C 336 191.994, 333.889 191.444, 332.694 192.639 M 422.446 194.480 C 424.066 195.804, 426.179 198.826, 427.140 201.194 C 428.418 204.343, 428.903 204.886, 428.944 203.215 C 429.033 199.579, 423.338 192.062, 420.500 192.069 C 419.950 192.071, 420.826 193.156, 422.446 194.480 M 374.510 195.016 C 374.856 195.575, 375.634 195.726, 376.239 195.352 C 376.973 194.899, 377.099 195.299, 376.617 196.555 C 376.220 197.591, 376.214 198.119, 376.605 197.728 C 376.996 197.337, 377.893 197.496, 378.598 198.082 C 379.635 198.942, 379.652 198.654, 378.690 196.581 C 378.036 195.170, 376.686 194.012, 375.691 194.008 C 374.696 194.004, 374.165 194.457, 374.510 195.016 M 342.200 199.051 C 340.625 201.574, 340.684 202, 342.607 202 C 343.592 202, 344.001 201.445, 343.663 200.565 C 343.360 199.775, 343.627 198.958, 344.257 198.748 C 344.982 198.506, 345.035 198.139, 344.401 197.748 C 343.851 197.408, 342.860 197.994, 342.200 199.051 M 243.250 234.375 C 239.443 236.232, 239 236.817, 239 239.981 C 239 241.924, 238.612 244.864, 238.139 246.516 C 237.086 250.186, 238.192 253.497, 240.964 254.981 C 246.386 257.882, 263.251 250.970, 264.609 245.291 C 264.976 243.756, 265.719 241.938, 266.260 241.250 C 266.962 240.359, 266.779 240, 265.622 240 C 264.730 240, 264 240.450, 264 241.001 C 264 241.602, 261.023 241.896, 256.533 241.737 C 247.898 241.432, 245.631 239.775, 247.055 234.810 C 247.498 233.264, 247.779 232.068, 247.680 232.151 C 247.581 232.234, 245.588 233.235, 243.250 234.375 M 253.393 234.582 C 253.727 235.452, 254.014 236.689, 254.032 237.332 C 254.049 237.974, 254.724 237.627, 255.532 236.559 C 256.684 235.035, 256.731 234.447, 255.750 233.824 C 253.746 232.552, 252.738 232.875, 253.393 234.582 M 293.500 260 C 293.840 260.550, 295.104 260.968, 296.309 260.930 C 298.421 260.862, 298.428 260.829, 296.500 260 C 293.748 258.817, 292.769 258.817, 293.500 260 M 314.029 268 C 312.810 268.784, 312.059 273.364, 310.530 289.363 C 309.748 297.537, 308.866 304.468, 308.568 304.765 C 308.271 305.062, 307.120 304.151, 306.010 302.740 C 302.386 298.133, 294.518 295.001, 286.554 294.995 C 277.415 294.989, 270.966 297.335, 264.729 302.938 C 255.242 311.459, 254.999 312.229, 255.005 333.730 L 255.010 352.500 258.793 357.500 C 261.588 361.194, 264.478 363.479, 269.858 366.250 C 276.377 369.607, 277.928 370, 284.674 370 C 290.718 370, 293.195 369.505, 297.187 367.500 C 299.924 366.125, 302.577 365, 303.082 365 C 303.587 365, 304 366.545, 304 368.433 C 304 372.515, 304.132 372.572, 316.996 374.012 C 324.162 374.814, 327.036 374.784, 328.711 373.887 C 330.478 372.941, 331.275 372.983, 332.610 374.091 C 334.129 375.352, 334.207 375.247, 333.434 372.992 C 331.936 368.621, 332.403 362.317, 334.388 360.124 C 336.213 358.108, 336.197 358.094, 332.725 358.657 L 329.220 359.226 329.647 354.363 C 330.989 339.085, 331.023 338.942, 332.974 339.986 C 334.636 340.875, 334.757 340.608, 334.286 337.096 C 333.628 332.192, 336.735 308.402, 338.510 304.750 C 339.675 302.354, 339.646 302, 338.287 302 C 336.446 302, 336.705 299.076, 340.167 280.776 C 341.387 274.327, 342.185 268.859, 341.942 268.625 C 341.295 268, 314.946 267.411, 314.029 268 M 108.477 291.072 C 108.115 292.212, 107.240 292.922, 106.532 292.650 C 105.823 292.379, 104.739 292.661, 104.122 293.278 C 103.455 293.945, 103 293.994, 103 293.400 C 103 292.850, 103.563 291.828, 104.250 291.129 C 106.245 289.099, 102.994 290.132, 100.539 292.307 C 97.804 294.731, 97.727 301.936, 100.405 304.895 C 102.971 307.730, 104.815 307.597, 102.405 304.750 L 100.500 302.500 102.683 304.344 C 103.883 305.358, 104.645 306.761, 104.376 307.463 C 103.853 308.827, 106.848 309.966, 111 309.983 C 118.870 310.014, 125.839 298.078, 118.995 296.288 C 117.898 296.001, 117 295.343, 117 294.824 C 117 294.306, 117.520 294.203, 118.155 294.595 C 118.886 295.048, 119.037 294.869, 118.565 294.106 C 118.099 293.350, 117.390 293.242, 116.661 293.815 C 115.203 294.961, 111.905 294.962, 112.613 293.817 C 112.902 293.350, 113.506 293.195, 113.956 293.473 C 114.405 293.751, 115.387 293.195, 116.137 292.239 C 117.361 290.678, 117.327 290.636, 115.806 291.826 C 114.358 292.959, 113.852 292.850, 112.333 291.076 C 110.098 288.465, 109.305 288.464, 108.477 291.072 M 99.555 297.828 C 98.655 300.663, 99.938 302.863, 101.188 300.628 C 101.740 299.643, 101.732 298.343, 101.169 297.337 C 100.344 295.863, 100.161 295.919, 99.555 297.828 M 129.978 301.750 C 129.943 304.535, 126.444 311.506, 123.864 313.933 C 117.728 319.704, 108.116 320.432, 101.214 315.649 C 96.621 312.465, 95.064 312.360, 92.189 315.039 C 88.626 318.358, 89.225 323.172, 93.618 326.522 C 101.409 332.465, 111.529 334.477, 118.654 331.500 C 120.629 330.675, 123.111 330, 124.171 330 C 125.231 330, 129.721 332.925, 134.149 336.500 C 138.577 340.075, 142.895 343, 143.744 343 C 146.241 343, 144.607 328.782, 140.977 318.938 C 139.340 314.497, 138 310.099, 138 309.164 C 138 306.729, 133.200 300, 131.464 300 C 130.659 300, 129.990 300.788, 129.978 301.750 M 288 318.706 C 280.071 321.605, 276.380 334.025, 281.152 341.747 C 283.319 345.252, 288.116 348, 292.067 348 C 298.917 348, 306 340.025, 306 332.312 C 306 323.455, 295.898 315.819, 288 318.706 M 213.435 324.203 C 213.051 325.415, 212.121 327.022, 211.368 327.775 C 210.616 328.527, 210 329.764, 210 330.524 C 210 331.476, 209.068 331.787, 207 331.525 C 205.350 331.316, 204 331.563, 204 332.073 C 204 332.583, 203.116 333, 202.035 333 C 200.955 333, 199.556 333.961, 198.928 335.135 C 198.089 336.703, 197.578 336.934, 197.004 336.007 C 196.575 335.312, 195.720 335.055, 195.104 335.436 C 193.627 336.349, 191.228 333.889, 191.746 331.991 C 192.103 330.681, 192.023 330.682, 191.091 332 C 190.058 333.461, 189.935 333.359, 189.580 330.750 C 189.486 330.063, 188.867 329.613, 188.205 329.750 C 187.542 329.887, 187 329.648, 187 329.218 C 187 327.989, 182.176 327.906, 181.424 329.122 C 180.978 329.844, 181.448 329.993, 182.808 329.561 C 184.349 329.072, 185.607 329.737, 187.805 332.204 C 195.771 341.141, 205.866 353.095, 209 357.301 C 210.925 359.884, 213.579 362.289, 214.897 362.644 C 216.216 363, 222.309 362.713, 228.439 362.007 C 238.839 360.809, 239.663 360.552, 240.791 358.162 C 243.169 353.125, 242.423 351.713, 231.750 341.053 C 229.688 338.993, 228 336.530, 228 335.579 C 228 333.554, 217.292 322, 215.415 322 C 214.711 322, 213.820 322.992, 213.435 324.203 M 197.056 325.156 C 194.755 327.019, 194.733 327.158, 196.473 328.796 C 197.468 329.733, 197.967 329.938, 197.582 329.250 C 197.088 328.369, 197.793 328, 199.972 328 C 201.848 328, 203.298 327.388, 203.660 326.443 C 203.989 325.586, 204.875 325.122, 205.629 325.411 C 206.419 325.714, 207 325.294, 207 324.419 C 207 323.284, 206.571 323.141, 205.303 323.851 C 204.369 324.373, 202.670 324.445, 201.526 324.010 C 200.070 323.456, 198.731 323.800, 197.056 325.156 M 216.250 325.718 C 215.563 325.965, 215 327.254, 215 328.583 C 215 330.434, 215.535 331, 217.287 331 C 218.831 331, 219.622 330.372, 219.720 329.067 C 219.889 326.828, 218.063 325.066, 216.250 325.718 M 176.403 332.157 C 176.009 332.794, 175.762 335.269, 175.852 337.657 C 175.993 341.394, 175.736 342, 174.008 342 C 172.856 342, 172 341.335, 172 340.441 C 172 339.584, 171.543 339.165, 170.984 339.510 C 170.425 339.856, 170.226 340.557, 170.543 341.069 C 170.859 341.581, 170.622 342, 170.015 342 C 169.409 342, 169.045 341.212, 169.206 340.250 C 169.383 339.195, 168.955 338.615, 168.127 338.791 C 167.254 338.976, 166.970 338.522, 167.346 337.541 C 167.741 336.511, 167.351 336, 166.169 336 C 165.196 336, 163.804 335.438, 163.075 334.750 C 162.015 333.750, 161.658 333.750, 161.292 334.750 C 161.040 335.438, 160.196 336, 159.417 336 C 158.637 336, 158 336.909, 158 338.019 C 158 339.673, 158.452 339.925, 160.500 339.411 C 162.667 338.867, 163 339.116, 163 341.283 C 163 343.138, 162.333 343.951, 160.415 344.432 C 158.993 344.789, 157.016 344.822, 156.020 344.506 C 155.025 344.191, 153.524 344.618, 152.686 345.457 C 151.536 346.607, 151.037 346.676, 150.659 345.741 C 149.594 343.103, 150.102 350.819, 151.401 357 C 152.152 360.575, 153.084 365.840, 153.470 368.700 C 154.393 375.516, 155.584 376.397, 162.742 375.554 C 171.067 374.574, 184.082 370.951, 184.656 369.454 C 184.927 368.748, 183.953 363.520, 182.493 357.835 C 176.847 335.866, 176.816 335.700, 177.911 333.295 C 178.977 330.955, 177.728 330.013, 176.403 332.157 M 152.370 338.250 C 152.701 339.488, 152.979 340.864, 152.986 341.309 C 152.994 341.754, 153.450 341.840, 154 341.500 C 155.688 340.457, 155.188 336, 153.383 336 C 152.195 336, 151.926 336.596, 152.370 338.250 M 362.196 364.298 C 360.438 366.111, 359 367.891, 359 368.252 C 359 368.927, 362.433 365.671, 364.872 362.682 C 367.194 359.837, 365.568 360.818, 362.196 364.298" stroke="none" fill="#9057e3" fill-rule="evenodd"/></svg>